<?xml version="1.0" encoding="UTF-8"?>
<svg width="100pt" height="100pt" version="1.1" viewBox="0 0 100 100" xmlns="http://www.w3.org/2000/svg">
 <path d="m67.305 7.3359h-34.609c-8.4062 0-15.25 6.0625-15.25 13.516v8.1094c-2.8125 0-4.3594 2.0547-4.3594 4.1016v4.4141c0 2.2578 1.8359 4.1016 4.1016 4.1016h0.55469l3.8828 46.609c0.22656 2.6875 2.7812 4.7891 5.8047 4.7891h45.117c3.0312 0 5.5781-2.1016 5.8125-4.7891l3.8828-46.602h0.5625c2.2578 0 4.1016-1.8359 4.1016-4.1016v-4.4141c0-2.0625-1.5547-4.1016-4.3594-4.1016v-8.1094c0-7.4531-6.8438-13.516-15.25-13.516zm17.266 25.727v4.4141c0 0.96875-0.78906 1.7578-1.7578 1.7578h-65.625c-0.96875 0-1.7578-0.78906-1.7578-1.7578v-4.4141c0-0.96875 0.78906-1.7578 1.7578-1.7578h65.625c0.96875 0 1.7578 0.78906 1.7578 1.7578zm-12.008 57.57h-45.125c-1.8203 0-3.3438-1.1562-3.4688-2.6406l-1.0547-12.625h54.172l-1.0547 12.625c-0.125 1.4844-1.6484 2.6406-3.4766 2.6406zm5.4688-26.594-0.75781 8.9844h-54.555c-0.78906-9.4375-0.82812-8.9844-0.75-8.9844zm0.19531-2.3438h-56.453l-1.6797-20.117h59.805l-1.6797 20.117zm-4.1172-32.734h-48.219v-8.1094c0-2.8125 3.0547-5.1016 6.8047-5.1016h34.602c3.75 0 6.8047 2.2891 6.8047 5.1016v8.1094zm6.1016 0h-3.7578v-8.1094c0-4.1016-4.1016-7.4453-9.1484-7.4453h-34.609c-5.0469 0-9.1484 3.3359-9.1484 7.4453v8.1094h-3.7578v-8.1094c0-6.1641 5.7891-11.172 12.906-11.172h34.602c7.1172 0 12.906 5.0156 12.906 11.172v8.1094z"/>
</svg>
